<mxfile host="app.diagrams.net" modified="2020-09-16T00:21:37.499Z" agent="5.0 (X11; Linux x86_64) AppleWebKit/537.36 (KHTML, like Gecko) Chrome/84.0.4147.125 Safari/537.36" etag="Heo-hQRiFKZZs_eZBlFS" version="13.7.1" type="github">
  <diagram id="iM01JgJM6bgbSfNag5O8" name="Page-1">
    <mxGraphModel dx="1990" dy="1200" grid="1" gridSize="10" guides="1" tooltips="1" connect="1" arrows="1" fold="1" page="1" pageScale="1" pageWidth="1100" pageHeight="850" math="0" shadow="0">
      <root>
        <mxCell id="0" />
        <mxCell id="1" parent="0" />
        <mxCell id="hYe1l8AVHvrtLXBg5llC-14" value="cohorts" style="shape=table;startSize=30;container=1;collapsible=1;childLayout=tableLayout;fixedRows=1;rowLines=0;fontStyle=1;align=center;resizeLast=1;" vertex="1" parent="1">
          <mxGeometry x="90" y="120" width="180" height="170" as="geometry" />
        </mxCell>
        <mxCell id="hYe1l8AVHvrtLXBg5llC-15" value="" style="shape=partialRectangle;collapsible=0;dropTarget=0;pointerEvents=0;fillColor=none;top=0;left=0;bottom=1;right=0;points=[[0,0.5],[1,0.5]];portConstraint=eastwest;" vertex="1" parent="hYe1l8AVHvrtLXBg5llC-14">
          <mxGeometry y="30" width="180" height="30" as="geometry" />
        </mxCell>
        <mxCell id="hYe1l8AVHvrtLXBg5llC-16" value="PK" style="shape=partialRectangle;connectable=0;fillColor=none;top=0;left=0;bottom=0;right=0;fontStyle=1;overflow=hidden;" vertex="1" parent="hYe1l8AVHvrtLXBg5llC-15">
          <mxGeometry width="30" height="30" as="geometry" />
        </mxCell>
        <mxCell id="hYe1l8AVHvrtLXBg5llC-17" value="ID" style="shape=partialRectangle;connectable=0;fillColor=none;top=0;left=0;bottom=0;right=0;align=left;spacingLeft=6;fontStyle=5;overflow=hidden;" vertex="1" parent="hYe1l8AVHvrtLXBg5llC-15">
          <mxGeometry x="30" width="150" height="30" as="geometry" />
        </mxCell>
        <mxCell id="hYe1l8AVHvrtLXBg5llC-18" value="" style="shape=partialRectangle;collapsible=0;dropTarget=0;pointerEvents=0;fillColor=none;top=0;left=0;bottom=0;right=0;points=[[0,0.5],[1,0.5]];portConstraint=eastwest;" vertex="1" parent="hYe1l8AVHvrtLXBg5llC-14">
          <mxGeometry y="60" width="180" height="30" as="geometry" />
        </mxCell>
        <mxCell id="hYe1l8AVHvrtLXBg5llC-19" value="" style="shape=partialRectangle;connectable=0;fillColor=none;top=0;left=0;bottom=0;right=0;editable=1;overflow=hidden;" vertex="1" parent="hYe1l8AVHvrtLXBg5llC-18">
          <mxGeometry width="30" height="30" as="geometry" />
        </mxCell>
        <mxCell id="hYe1l8AVHvrtLXBg5llC-20" value="name" style="shape=partialRectangle;connectable=0;fillColor=none;top=0;left=0;bottom=0;right=0;align=left;spacingLeft=6;overflow=hidden;" vertex="1" parent="hYe1l8AVHvrtLXBg5llC-18">
          <mxGeometry x="30" width="150" height="30" as="geometry" />
        </mxCell>
        <mxCell id="hYe1l8AVHvrtLXBg5llC-21" value="" style="shape=partialRectangle;collapsible=0;dropTarget=0;pointerEvents=0;fillColor=none;top=0;left=0;bottom=0;right=0;points=[[0,0.5],[1,0.5]];portConstraint=eastwest;" vertex="1" parent="hYe1l8AVHvrtLXBg5llC-14">
          <mxGeometry y="90" width="180" height="30" as="geometry" />
        </mxCell>
        <mxCell id="hYe1l8AVHvrtLXBg5llC-22" value="" style="shape=partialRectangle;connectable=0;fillColor=none;top=0;left=0;bottom=0;right=0;editable=1;overflow=hidden;" vertex="1" parent="hYe1l8AVHvrtLXBg5llC-21">
          <mxGeometry width="30" height="30" as="geometry" />
        </mxCell>
        <mxCell id="hYe1l8AVHvrtLXBg5llC-23" value="start_date" style="shape=partialRectangle;connectable=0;fillColor=none;top=0;left=0;bottom=0;right=0;align=left;spacingLeft=6;overflow=hidden;" vertex="1" parent="hYe1l8AVHvrtLXBg5llC-21">
          <mxGeometry x="30" width="150" height="30" as="geometry" />
        </mxCell>
        <mxCell id="hYe1l8AVHvrtLXBg5llC-24" value="" style="shape=partialRectangle;collapsible=0;dropTarget=0;pointerEvents=0;fillColor=none;top=0;left=0;bottom=0;right=0;points=[[0,0.5],[1,0.5]];portConstraint=eastwest;" vertex="1" parent="hYe1l8AVHvrtLXBg5llC-14">
          <mxGeometry y="120" width="180" height="30" as="geometry" />
        </mxCell>
        <mxCell id="hYe1l8AVHvrtLXBg5llC-25" value="" style="shape=partialRectangle;connectable=0;fillColor=none;top=0;left=0;bottom=0;right=0;editable=1;overflow=hidden;" vertex="1" parent="hYe1l8AVHvrtLXBg5llC-24">
          <mxGeometry width="30" height="30" as="geometry" />
        </mxCell>
        <mxCell id="hYe1l8AVHvrtLXBg5llC-26" value="end_date" style="shape=partialRectangle;connectable=0;fillColor=none;top=0;left=0;bottom=0;right=0;align=left;spacingLeft=6;overflow=hidden;" vertex="1" parent="hYe1l8AVHvrtLXBg5llC-24">
          <mxGeometry x="30" width="150" height="30" as="geometry" />
        </mxCell>
        <mxCell id="hYe1l8AVHvrtLXBg5llC-102" value="" style="shape=partialRectangle;connectable=0;fillColor=none;top=0;left=0;bottom=0;right=0;editable=1;overflow=hidden;" vertex="1" parent="1">
          <mxGeometry x="330" y="330" width="30" height="30" as="geometry" />
        </mxCell>
        <mxCell id="hYe1l8AVHvrtLXBg5llC-49" value="teachers" style="shape=table;startSize=30;container=1;collapsible=1;childLayout=tableLayout;fixedRows=1;rowLines=0;fontStyle=1;align=center;resizeLast=1;" vertex="1" parent="1">
          <mxGeometry x="90" y="350" width="180" height="230" as="geometry" />
        </mxCell>
        <mxCell id="hYe1l8AVHvrtLXBg5llC-50" value="" style="shape=partialRectangle;collapsible=0;dropTarget=0;pointerEvents=0;fillColor=none;top=0;left=0;bottom=1;right=0;points=[[0,0.5],[1,0.5]];portConstraint=eastwest;" vertex="1" parent="hYe1l8AVHvrtLXBg5llC-49">
          <mxGeometry y="30" width="180" height="30" as="geometry" />
        </mxCell>
        <mxCell id="hYe1l8AVHvrtLXBg5llC-51" value="PK" style="shape=partialRectangle;connectable=0;fillColor=none;top=0;left=0;bottom=0;right=0;fontStyle=1;overflow=hidden;" vertex="1" parent="hYe1l8AVHvrtLXBg5llC-50">
          <mxGeometry width="30" height="30" as="geometry" />
        </mxCell>
        <mxCell id="hYe1l8AVHvrtLXBg5llC-52" value="ID" style="shape=partialRectangle;connectable=0;fillColor=none;top=0;left=0;bottom=0;right=0;align=left;spacingLeft=6;fontStyle=5;overflow=hidden;" vertex="1" parent="hYe1l8AVHvrtLXBg5llC-50">
          <mxGeometry x="30" width="150" height="30" as="geometry" />
        </mxCell>
        <mxCell id="hYe1l8AVHvrtLXBg5llC-53" value="" style="shape=partialRectangle;collapsible=0;dropTarget=0;pointerEvents=0;fillColor=none;top=0;left=0;bottom=0;right=0;points=[[0,0.5],[1,0.5]];portConstraint=eastwest;" vertex="1" parent="hYe1l8AVHvrtLXBg5llC-49">
          <mxGeometry y="60" width="180" height="30" as="geometry" />
        </mxCell>
        <mxCell id="hYe1l8AVHvrtLXBg5llC-54" value="" style="shape=partialRectangle;connectable=0;fillColor=none;top=0;left=0;bottom=0;right=0;editable=1;overflow=hidden;" vertex="1" parent="hYe1l8AVHvrtLXBg5llC-53">
          <mxGeometry width="30" height="30" as="geometry" />
        </mxCell>
        <mxCell id="hYe1l8AVHvrtLXBg5llC-55" value="name" style="shape=partialRectangle;connectable=0;fillColor=none;top=0;left=0;bottom=0;right=0;align=left;spacingLeft=6;overflow=hidden;" vertex="1" parent="hYe1l8AVHvrtLXBg5llC-53">
          <mxGeometry x="30" width="150" height="30" as="geometry" />
        </mxCell>
        <mxCell id="hYe1l8AVHvrtLXBg5llC-56" value="" style="shape=partialRectangle;collapsible=0;dropTarget=0;pointerEvents=0;fillColor=none;top=0;left=0;bottom=0;right=0;points=[[0,0.5],[1,0.5]];portConstraint=eastwest;" vertex="1" parent="hYe1l8AVHvrtLXBg5llC-49">
          <mxGeometry y="90" width="180" height="30" as="geometry" />
        </mxCell>
        <mxCell id="hYe1l8AVHvrtLXBg5llC-57" value="" style="shape=partialRectangle;connectable=0;fillColor=none;top=0;left=0;bottom=0;right=0;editable=1;overflow=hidden;" vertex="1" parent="hYe1l8AVHvrtLXBg5llC-56">
          <mxGeometry width="30" height="30" as="geometry" />
        </mxCell>
        <mxCell id="hYe1l8AVHvrtLXBg5llC-58" value="start_date" style="shape=partialRectangle;connectable=0;fillColor=none;top=0;left=0;bottom=0;right=0;align=left;spacingLeft=6;overflow=hidden;" vertex="1" parent="hYe1l8AVHvrtLXBg5llC-56">
          <mxGeometry x="30" width="150" height="30" as="geometry" />
        </mxCell>
        <mxCell id="hYe1l8AVHvrtLXBg5llC-59" value="" style="shape=partialRectangle;collapsible=0;dropTarget=0;pointerEvents=0;fillColor=none;top=0;left=0;bottom=0;right=0;points=[[0,0.5],[1,0.5]];portConstraint=eastwest;" vertex="1" parent="hYe1l8AVHvrtLXBg5llC-49">
          <mxGeometry y="120" width="180" height="30" as="geometry" />
        </mxCell>
        <mxCell id="hYe1l8AVHvrtLXBg5llC-60" value="" style="shape=partialRectangle;connectable=0;fillColor=none;top=0;left=0;bottom=0;right=0;editable=1;overflow=hidden;" vertex="1" parent="hYe1l8AVHvrtLXBg5llC-59">
          <mxGeometry width="30" height="30" as="geometry" />
        </mxCell>
        <mxCell id="hYe1l8AVHvrtLXBg5llC-61" value="end_date" style="shape=partialRectangle;connectable=0;fillColor=none;top=0;left=0;bottom=0;right=0;align=left;spacingLeft=6;overflow=hidden;" vertex="1" parent="hYe1l8AVHvrtLXBg5llC-59">
          <mxGeometry x="30" width="150" height="30" as="geometry" />
        </mxCell>
        <mxCell id="hYe1l8AVHvrtLXBg5llC-62" value="" style="shape=partialRectangle;collapsible=0;dropTarget=0;pointerEvents=0;fillColor=none;top=0;left=0;bottom=0;right=0;points=[[0,0.5],[1,0.5]];portConstraint=eastwest;" vertex="1" parent="hYe1l8AVHvrtLXBg5llC-49">
          <mxGeometry y="150" width="180" height="30" as="geometry" />
        </mxCell>
        <mxCell id="hYe1l8AVHvrtLXBg5llC-63" value="" style="shape=partialRectangle;connectable=0;fillColor=none;top=0;left=0;bottom=0;right=0;editable=1;overflow=hidden;" vertex="1" parent="hYe1l8AVHvrtLXBg5llC-62">
          <mxGeometry width="30" height="30" as="geometry" />
        </mxCell>
        <mxCell id="hYe1l8AVHvrtLXBg5llC-64" value="Row" style="shape=partialRectangle;connectable=0;fillColor=none;top=0;left=0;bottom=0;right=0;align=left;spacingLeft=6;overflow=hidden;" vertex="1" parent="hYe1l8AVHvrtLXBg5llC-62">
          <mxGeometry x="30" width="150" height="30" as="geometry" />
        </mxCell>
        <mxCell id="hYe1l8AVHvrtLXBg5llC-133" value="assignments" style="shape=table;startSize=30;container=1;collapsible=1;childLayout=tableLayout;fixedRows=1;rowLines=0;fontStyle=1;align=center;resizeLast=1;" vertex="1" parent="1">
          <mxGeometry x="780" y="180" width="180" height="210" as="geometry" />
        </mxCell>
        <mxCell id="hYe1l8AVHvrtLXBg5llC-134" value="" style="shape=partialRectangle;collapsible=0;dropTarget=0;pointerEvents=0;fillColor=none;top=0;left=0;bottom=1;right=0;points=[[0,0.5],[1,0.5]];portConstraint=eastwest;" vertex="1" parent="hYe1l8AVHvrtLXBg5llC-133">
          <mxGeometry y="30" width="180" height="30" as="geometry" />
        </mxCell>
        <mxCell id="hYe1l8AVHvrtLXBg5llC-135" value="PK" style="shape=partialRectangle;connectable=0;fillColor=none;top=0;left=0;bottom=0;right=0;fontStyle=1;overflow=hidden;" vertex="1" parent="hYe1l8AVHvrtLXBg5llC-134">
          <mxGeometry width="30" height="30" as="geometry" />
        </mxCell>
        <mxCell id="hYe1l8AVHvrtLXBg5llC-136" value="ID" style="shape=partialRectangle;connectable=0;fillColor=none;top=0;left=0;bottom=0;right=0;align=left;spacingLeft=6;fontStyle=5;overflow=hidden;" vertex="1" parent="hYe1l8AVHvrtLXBg5llC-134">
          <mxGeometry x="30" width="150" height="30" as="geometry" />
        </mxCell>
        <mxCell id="hYe1l8AVHvrtLXBg5llC-137" value="" style="shape=partialRectangle;collapsible=0;dropTarget=0;pointerEvents=0;fillColor=none;top=0;left=0;bottom=0;right=0;points=[[0,0.5],[1,0.5]];portConstraint=eastwest;" vertex="1" parent="hYe1l8AVHvrtLXBg5llC-133">
          <mxGeometry y="60" width="180" height="30" as="geometry" />
        </mxCell>
        <mxCell id="hYe1l8AVHvrtLXBg5llC-138" value="" style="shape=partialRectangle;connectable=0;fillColor=none;top=0;left=0;bottom=0;right=0;editable=1;overflow=hidden;" vertex="1" parent="hYe1l8AVHvrtLXBg5llC-137">
          <mxGeometry width="30" height="30" as="geometry" />
        </mxCell>
        <mxCell id="hYe1l8AVHvrtLXBg5llC-139" value="name" style="shape=partialRectangle;connectable=0;fillColor=none;top=0;left=0;bottom=0;right=0;align=left;spacingLeft=6;overflow=hidden;" vertex="1" parent="hYe1l8AVHvrtLXBg5llC-137">
          <mxGeometry x="30" width="150" height="30" as="geometry" />
        </mxCell>
        <mxCell id="hYe1l8AVHvrtLXBg5llC-140" value="" style="shape=partialRectangle;collapsible=0;dropTarget=0;pointerEvents=0;fillColor=none;top=0;left=0;bottom=0;right=0;points=[[0,0.5],[1,0.5]];portConstraint=eastwest;" vertex="1" parent="hYe1l8AVHvrtLXBg5llC-133">
          <mxGeometry y="90" width="180" height="30" as="geometry" />
        </mxCell>
        <mxCell id="hYe1l8AVHvrtLXBg5llC-141" value="" style="shape=partialRectangle;connectable=0;fillColor=none;top=0;left=0;bottom=0;right=0;editable=1;overflow=hidden;" vertex="1" parent="hYe1l8AVHvrtLXBg5llC-140">
          <mxGeometry width="30" height="30" as="geometry" />
        </mxCell>
        <mxCell id="hYe1l8AVHvrtLXBg5llC-142" value="content" style="shape=partialRectangle;connectable=0;fillColor=none;top=0;left=0;bottom=0;right=0;align=left;spacingLeft=6;overflow=hidden;" vertex="1" parent="hYe1l8AVHvrtLXBg5llC-140">
          <mxGeometry x="30" width="150" height="30" as="geometry" />
        </mxCell>
        <mxCell id="hYe1l8AVHvrtLXBg5llC-143" value="" style="shape=partialRectangle;collapsible=0;dropTarget=0;pointerEvents=0;fillColor=none;top=0;left=0;bottom=0;right=0;points=[[0,0.5],[1,0.5]];portConstraint=eastwest;" vertex="1" parent="hYe1l8AVHvrtLXBg5llC-133">
          <mxGeometry y="120" width="180" height="30" as="geometry" />
        </mxCell>
        <mxCell id="hYe1l8AVHvrtLXBg5llC-144" value="" style="shape=partialRectangle;connectable=0;fillColor=none;top=0;left=0;bottom=0;right=0;editable=1;overflow=hidden;" vertex="1" parent="hYe1l8AVHvrtLXBg5llC-143">
          <mxGeometry width="30" height="30" as="geometry" />
        </mxCell>
        <mxCell id="hYe1l8AVHvrtLXBg5llC-145" value="day" style="shape=partialRectangle;connectable=0;fillColor=none;top=0;left=0;bottom=0;right=0;align=left;spacingLeft=6;overflow=hidden;" vertex="1" parent="hYe1l8AVHvrtLXBg5llC-143">
          <mxGeometry x="30" width="150" height="30" as="geometry" />
        </mxCell>
        <mxCell id="hYe1l8AVHvrtLXBg5llC-147" value="" style="shape=partialRectangle;collapsible=0;dropTarget=0;pointerEvents=0;fillColor=none;top=0;left=0;bottom=0;right=0;points=[[0,0.5],[1,0.5]];portConstraint=eastwest;" vertex="1" parent="hYe1l8AVHvrtLXBg5llC-133">
          <mxGeometry y="150" width="180" height="30" as="geometry" />
        </mxCell>
        <mxCell id="hYe1l8AVHvrtLXBg5llC-148" value="" style="shape=partialRectangle;connectable=0;fillColor=none;top=0;left=0;bottom=0;right=0;editable=1;overflow=hidden;" vertex="1" parent="hYe1l8AVHvrtLXBg5llC-147">
          <mxGeometry width="30" height="30" as="geometry" />
        </mxCell>
        <mxCell id="hYe1l8AVHvrtLXBg5llC-149" value="chapter" style="shape=partialRectangle;connectable=0;fillColor=none;top=0;left=0;bottom=0;right=0;align=left;spacingLeft=6;overflow=hidden;" vertex="1" parent="hYe1l8AVHvrtLXBg5llC-147">
          <mxGeometry x="30" width="150" height="30" as="geometry" />
        </mxCell>
        <mxCell id="hYe1l8AVHvrtLXBg5llC-151" value="" style="shape=partialRectangle;collapsible=0;dropTarget=0;pointerEvents=0;fillColor=none;top=0;left=0;bottom=0;right=0;points=[[0,0.5],[1,0.5]];portConstraint=eastwest;" vertex="1" parent="hYe1l8AVHvrtLXBg5llC-133">
          <mxGeometry y="180" width="180" height="30" as="geometry" />
        </mxCell>
        <mxCell id="hYe1l8AVHvrtLXBg5llC-152" value="" style="shape=partialRectangle;connectable=0;fillColor=none;top=0;left=0;bottom=0;right=0;editable=1;overflow=hidden;" vertex="1" parent="hYe1l8AVHvrtLXBg5llC-151">
          <mxGeometry width="30" height="30" as="geometry" />
        </mxCell>
        <mxCell id="hYe1l8AVHvrtLXBg5llC-153" value="duration" style="shape=partialRectangle;connectable=0;fillColor=none;top=0;left=0;bottom=0;right=0;align=left;spacingLeft=6;overflow=hidden;" vertex="1" parent="hYe1l8AVHvrtLXBg5llC-151">
          <mxGeometry x="30" width="150" height="30" as="geometry" />
        </mxCell>
        <mxCell id="hYe1l8AVHvrtLXBg5llC-1" value="assistance_requests" style="shape=table;startSize=30;container=1;collapsible=1;childLayout=tableLayout;fixedRows=1;rowLines=0;fontStyle=1;align=center;resizeLast=1;" vertex="1" parent="1">
          <mxGeometry x="420" y="540" width="180" height="300" as="geometry" />
        </mxCell>
        <mxCell id="hYe1l8AVHvrtLXBg5llC-2" value="" style="shape=partialRectangle;collapsible=0;dropTarget=0;pointerEvents=0;fillColor=none;top=0;left=0;bottom=1;right=0;points=[[0,0.5],[1,0.5]];portConstraint=eastwest;" vertex="1" parent="hYe1l8AVHvrtLXBg5llC-1">
          <mxGeometry y="30" width="180" height="30" as="geometry" />
        </mxCell>
        <mxCell id="hYe1l8AVHvrtLXBg5llC-3" value="PK" style="shape=partialRectangle;connectable=0;fillColor=none;top=0;left=0;bottom=0;right=0;fontStyle=1;overflow=hidden;" vertex="1" parent="hYe1l8AVHvrtLXBg5llC-2">
          <mxGeometry width="30" height="30" as="geometry" />
        </mxCell>
        <mxCell id="hYe1l8AVHvrtLXBg5llC-4" value="ID" style="shape=partialRectangle;connectable=0;fillColor=none;top=0;left=0;bottom=0;right=0;align=left;spacingLeft=6;fontStyle=5;overflow=hidden;" vertex="1" parent="hYe1l8AVHvrtLXBg5llC-2">
          <mxGeometry x="30" width="150" height="30" as="geometry" />
        </mxCell>
        <mxCell id="hYe1l8AVHvrtLXBg5llC-5" value="" style="shape=partialRectangle;collapsible=0;dropTarget=0;pointerEvents=0;fillColor=none;top=0;left=0;bottom=0;right=0;points=[[0,0.5],[1,0.5]];portConstraint=eastwest;" vertex="1" parent="hYe1l8AVHvrtLXBg5llC-1">
          <mxGeometry y="60" width="180" height="30" as="geometry" />
        </mxCell>
        <mxCell id="hYe1l8AVHvrtLXBg5llC-6" value="FK" style="shape=partialRectangle;connectable=0;fillColor=none;top=0;left=0;bottom=0;right=0;editable=1;overflow=hidden;" vertex="1" parent="hYe1l8AVHvrtLXBg5llC-5">
          <mxGeometry width="30" height="30" as="geometry" />
        </mxCell>
        <mxCell id="hYe1l8AVHvrtLXBg5llC-7" value="assignment_id" style="shape=partialRectangle;connectable=0;fillColor=none;top=0;left=0;bottom=0;right=0;align=left;spacingLeft=6;overflow=hidden;" vertex="1" parent="hYe1l8AVHvrtLXBg5llC-5">
          <mxGeometry x="30" width="150" height="30" as="geometry" />
        </mxCell>
        <mxCell id="hYe1l8AVHvrtLXBg5llC-8" value="" style="shape=partialRectangle;collapsible=0;dropTarget=0;pointerEvents=0;fillColor=none;top=0;left=0;bottom=0;right=0;points=[[0,0.5],[1,0.5]];portConstraint=eastwest;" vertex="1" parent="hYe1l8AVHvrtLXBg5llC-1">
          <mxGeometry y="90" width="180" height="30" as="geometry" />
        </mxCell>
        <mxCell id="hYe1l8AVHvrtLXBg5llC-9" value="FK" style="shape=partialRectangle;connectable=0;fillColor=none;top=0;left=0;bottom=0;right=0;editable=1;overflow=hidden;" vertex="1" parent="hYe1l8AVHvrtLXBg5llC-8">
          <mxGeometry width="30" height="30" as="geometry" />
        </mxCell>
        <mxCell id="hYe1l8AVHvrtLXBg5llC-10" value="student_id" style="shape=partialRectangle;connectable=0;fillColor=none;top=0;left=0;bottom=0;right=0;align=left;spacingLeft=6;overflow=hidden;" vertex="1" parent="hYe1l8AVHvrtLXBg5llC-8">
          <mxGeometry x="30" width="150" height="30" as="geometry" />
        </mxCell>
        <mxCell id="hYe1l8AVHvrtLXBg5llC-11" value="" style="shape=partialRectangle;collapsible=0;dropTarget=0;pointerEvents=0;fillColor=none;top=0;left=0;bottom=0;right=0;points=[[0,0.5],[1,0.5]];portConstraint=eastwest;" vertex="1" parent="hYe1l8AVHvrtLXBg5llC-1">
          <mxGeometry y="120" width="180" height="30" as="geometry" />
        </mxCell>
        <mxCell id="hYe1l8AVHvrtLXBg5llC-12" value="FK" style="shape=partialRectangle;connectable=0;fillColor=none;top=0;left=0;bottom=0;right=0;editable=1;overflow=hidden;" vertex="1" parent="hYe1l8AVHvrtLXBg5llC-11">
          <mxGeometry width="30" height="30" as="geometry" />
        </mxCell>
        <mxCell id="hYe1l8AVHvrtLXBg5llC-13" value="teacher_id" style="shape=partialRectangle;connectable=0;fillColor=none;top=0;left=0;bottom=0;right=0;align=left;spacingLeft=6;overflow=hidden;" vertex="1" parent="hYe1l8AVHvrtLXBg5llC-11">
          <mxGeometry x="30" width="150" height="30" as="geometry" />
        </mxCell>
        <mxCell id="hYe1l8AVHvrtLXBg5llC-66" value="" style="shape=partialRectangle;collapsible=0;dropTarget=0;pointerEvents=0;fillColor=none;top=0;left=0;bottom=0;right=0;points=[[0,0.5],[1,0.5]];portConstraint=eastwest;" vertex="1" parent="hYe1l8AVHvrtLXBg5llC-1">
          <mxGeometry y="150" width="180" height="30" as="geometry" />
        </mxCell>
        <mxCell id="hYe1l8AVHvrtLXBg5llC-67" value="" style="shape=partialRectangle;connectable=0;fillColor=none;top=0;left=0;bottom=0;right=0;editable=1;overflow=hidden;" vertex="1" parent="hYe1l8AVHvrtLXBg5llC-66">
          <mxGeometry width="30" height="30" as="geometry" />
        </mxCell>
        <mxCell id="hYe1l8AVHvrtLXBg5llC-68" value="created_at" style="shape=partialRectangle;connectable=0;fillColor=none;top=0;left=0;bottom=0;right=0;align=left;spacingLeft=6;overflow=hidden;" vertex="1" parent="hYe1l8AVHvrtLXBg5llC-66">
          <mxGeometry x="30" width="150" height="30" as="geometry" />
        </mxCell>
        <mxCell id="hYe1l8AVHvrtLXBg5llC-106" value="" style="shape=partialRectangle;collapsible=0;dropTarget=0;pointerEvents=0;fillColor=none;top=0;left=0;bottom=0;right=0;points=[[0,0.5],[1,0.5]];portConstraint=eastwest;" vertex="1" parent="hYe1l8AVHvrtLXBg5llC-1">
          <mxGeometry y="180" width="180" height="30" as="geometry" />
        </mxCell>
        <mxCell id="hYe1l8AVHvrtLXBg5llC-107" value="" style="shape=partialRectangle;connectable=0;fillColor=none;top=0;left=0;bottom=0;right=0;editable=1;overflow=hidden;" vertex="1" parent="hYe1l8AVHvrtLXBg5llC-106">
          <mxGeometry width="30" height="30" as="geometry" />
        </mxCell>
        <mxCell id="hYe1l8AVHvrtLXBg5llC-108" value="started_at" style="shape=partialRectangle;connectable=0;fillColor=none;top=0;left=0;bottom=0;right=0;align=left;spacingLeft=6;overflow=hidden;" vertex="1" parent="hYe1l8AVHvrtLXBg5llC-106">
          <mxGeometry x="30" width="150" height="30" as="geometry" />
        </mxCell>
        <mxCell id="hYe1l8AVHvrtLXBg5llC-110" value="" style="shape=partialRectangle;collapsible=0;dropTarget=0;pointerEvents=0;fillColor=none;top=0;left=0;bottom=0;right=0;points=[[0,0.5],[1,0.5]];portConstraint=eastwest;" vertex="1" parent="hYe1l8AVHvrtLXBg5llC-1">
          <mxGeometry y="210" width="180" height="30" as="geometry" />
        </mxCell>
        <mxCell id="hYe1l8AVHvrtLXBg5llC-111" value="" style="shape=partialRectangle;connectable=0;fillColor=none;top=0;left=0;bottom=0;right=0;editable=1;overflow=hidden;" vertex="1" parent="hYe1l8AVHvrtLXBg5llC-110">
          <mxGeometry width="30" height="30" as="geometry" />
        </mxCell>
        <mxCell id="hYe1l8AVHvrtLXBg5llC-112" value="completed_at" style="shape=partialRectangle;connectable=0;fillColor=none;top=0;left=0;bottom=0;right=0;align=left;spacingLeft=6;overflow=hidden;" vertex="1" parent="hYe1l8AVHvrtLXBg5llC-110">
          <mxGeometry x="30" width="150" height="30" as="geometry" />
        </mxCell>
        <mxCell id="hYe1l8AVHvrtLXBg5llC-114" value="" style="shape=partialRectangle;collapsible=0;dropTarget=0;pointerEvents=0;fillColor=none;top=0;left=0;bottom=0;right=0;points=[[0,0.5],[1,0.5]];portConstraint=eastwest;" vertex="1" parent="hYe1l8AVHvrtLXBg5llC-1">
          <mxGeometry y="240" width="180" height="30" as="geometry" />
        </mxCell>
        <mxCell id="hYe1l8AVHvrtLXBg5llC-115" value="" style="shape=partialRectangle;connectable=0;fillColor=none;top=0;left=0;bottom=0;right=0;editable=1;overflow=hidden;" vertex="1" parent="hYe1l8AVHvrtLXBg5llC-114">
          <mxGeometry width="30" height="30" as="geometry" />
        </mxCell>
        <mxCell id="hYe1l8AVHvrtLXBg5llC-116" value="student_feedback" style="shape=partialRectangle;connectable=0;fillColor=none;top=0;left=0;bottom=0;right=0;align=left;spacingLeft=6;overflow=hidden;" vertex="1" parent="hYe1l8AVHvrtLXBg5llC-114">
          <mxGeometry x="30" width="150" height="30" as="geometry" />
        </mxCell>
        <mxCell id="hYe1l8AVHvrtLXBg5llC-118" value="" style="shape=partialRectangle;collapsible=0;dropTarget=0;pointerEvents=0;fillColor=none;top=0;left=0;bottom=0;right=0;points=[[0,0.5],[1,0.5]];portConstraint=eastwest;" vertex="1" parent="hYe1l8AVHvrtLXBg5llC-1">
          <mxGeometry y="270" width="180" height="30" as="geometry" />
        </mxCell>
        <mxCell id="hYe1l8AVHvrtLXBg5llC-119" value="" style="shape=partialRectangle;connectable=0;fillColor=none;top=0;left=0;bottom=0;right=0;editable=1;overflow=hidden;" vertex="1" parent="hYe1l8AVHvrtLXBg5llC-118">
          <mxGeometry width="30" height="30" as="geometry" />
        </mxCell>
        <mxCell id="hYe1l8AVHvrtLXBg5llC-120" value="teacher_feedback" style="shape=partialRectangle;connectable=0;fillColor=none;top=0;left=0;bottom=0;right=0;align=left;spacingLeft=6;overflow=hidden;" vertex="1" parent="hYe1l8AVHvrtLXBg5llC-118">
          <mxGeometry x="30" width="150" height="30" as="geometry" />
        </mxCell>
        <mxCell id="hYe1l8AVHvrtLXBg5llC-154" value="assignment_submissions &#xa;" style="shape=table;startSize=30;container=1;collapsible=1;childLayout=tableLayout;fixedRows=1;rowLines=0;fontStyle=1;align=center;resizeLast=1;" vertex="1" parent="1">
          <mxGeometry x="420" y="10" width="180" height="190" as="geometry" />
        </mxCell>
        <mxCell id="hYe1l8AVHvrtLXBg5llC-155" value="" style="shape=partialRectangle;collapsible=0;dropTarget=0;pointerEvents=0;fillColor=none;top=0;left=0;bottom=1;right=0;points=[[0,0.5],[1,0.5]];portConstraint=eastwest;" vertex="1" parent="hYe1l8AVHvrtLXBg5llC-154">
          <mxGeometry y="30" width="180" height="30" as="geometry" />
        </mxCell>
        <mxCell id="hYe1l8AVHvrtLXBg5llC-156" value="PK" style="shape=partialRectangle;connectable=0;fillColor=none;top=0;left=0;bottom=0;right=0;fontStyle=1;overflow=hidden;" vertex="1" parent="hYe1l8AVHvrtLXBg5llC-155">
          <mxGeometry width="30" height="30" as="geometry" />
        </mxCell>
        <mxCell id="hYe1l8AVHvrtLXBg5llC-157" value="ID" style="shape=partialRectangle;connectable=0;fillColor=none;top=0;left=0;bottom=0;right=0;align=left;spacingLeft=6;fontStyle=5;overflow=hidden;" vertex="1" parent="hYe1l8AVHvrtLXBg5llC-155">
          <mxGeometry x="30" width="150" height="30" as="geometry" />
        </mxCell>
        <mxCell id="hYe1l8AVHvrtLXBg5llC-158" value="" style="shape=partialRectangle;collapsible=0;dropTarget=0;pointerEvents=0;fillColor=none;top=0;left=0;bottom=0;right=0;points=[[0,0.5],[1,0.5]];portConstraint=eastwest;" vertex="1" parent="hYe1l8AVHvrtLXBg5llC-154">
          <mxGeometry y="60" width="180" height="30" as="geometry" />
        </mxCell>
        <mxCell id="hYe1l8AVHvrtLXBg5llC-159" value="FK" style="shape=partialRectangle;connectable=0;fillColor=none;top=0;left=0;bottom=0;right=0;editable=1;overflow=hidden;" vertex="1" parent="hYe1l8AVHvrtLXBg5llC-158">
          <mxGeometry width="30" height="30" as="geometry" />
        </mxCell>
        <mxCell id="hYe1l8AVHvrtLXBg5llC-160" value="assignment_id" style="shape=partialRectangle;connectable=0;fillColor=none;top=0;left=0;bottom=0;right=0;align=left;spacingLeft=6;overflow=hidden;" vertex="1" parent="hYe1l8AVHvrtLXBg5llC-158">
          <mxGeometry x="30" width="150" height="30" as="geometry" />
        </mxCell>
        <mxCell id="hYe1l8AVHvrtLXBg5llC-161" value="" style="shape=partialRectangle;collapsible=0;dropTarget=0;pointerEvents=0;fillColor=none;top=0;left=0;bottom=0;right=0;points=[[0,0.5],[1,0.5]];portConstraint=eastwest;" vertex="1" parent="hYe1l8AVHvrtLXBg5llC-154">
          <mxGeometry y="90" width="180" height="30" as="geometry" />
        </mxCell>
        <mxCell id="hYe1l8AVHvrtLXBg5llC-162" value="FK" style="shape=partialRectangle;connectable=0;fillColor=none;top=0;left=0;bottom=0;right=0;editable=1;overflow=hidden;" vertex="1" parent="hYe1l8AVHvrtLXBg5llC-161">
          <mxGeometry width="30" height="30" as="geometry" />
        </mxCell>
        <mxCell id="hYe1l8AVHvrtLXBg5llC-163" value="student_id" style="shape=partialRectangle;connectable=0;fillColor=none;top=0;left=0;bottom=0;right=0;align=left;spacingLeft=6;overflow=hidden;" vertex="1" parent="hYe1l8AVHvrtLXBg5llC-161">
          <mxGeometry x="30" width="150" height="30" as="geometry" />
        </mxCell>
        <mxCell id="hYe1l8AVHvrtLXBg5llC-164" value="" style="shape=partialRectangle;collapsible=0;dropTarget=0;pointerEvents=0;fillColor=none;top=0;left=0;bottom=0;right=0;points=[[0,0.5],[1,0.5]];portConstraint=eastwest;" vertex="1" parent="hYe1l8AVHvrtLXBg5llC-154">
          <mxGeometry y="120" width="180" height="30" as="geometry" />
        </mxCell>
        <mxCell id="hYe1l8AVHvrtLXBg5llC-165" value="" style="shape=partialRectangle;connectable=0;fillColor=none;top=0;left=0;bottom=0;right=0;editable=1;overflow=hidden;" vertex="1" parent="hYe1l8AVHvrtLXBg5llC-164">
          <mxGeometry width="30" height="30" as="geometry" />
        </mxCell>
        <mxCell id="hYe1l8AVHvrtLXBg5llC-166" value="duration" style="shape=partialRectangle;connectable=0;fillColor=none;top=0;left=0;bottom=0;right=0;align=left;spacingLeft=6;overflow=hidden;" vertex="1" parent="hYe1l8AVHvrtLXBg5llC-164">
          <mxGeometry x="30" width="150" height="30" as="geometry" />
        </mxCell>
        <mxCell id="hYe1l8AVHvrtLXBg5llC-168" value="" style="shape=partialRectangle;collapsible=0;dropTarget=0;pointerEvents=0;fillColor=none;top=0;left=0;bottom=0;right=0;points=[[0,0.5],[1,0.5]];portConstraint=eastwest;" vertex="1" parent="hYe1l8AVHvrtLXBg5llC-154">
          <mxGeometry y="150" width="180" height="30" as="geometry" />
        </mxCell>
        <mxCell id="hYe1l8AVHvrtLXBg5llC-169" value="" style="shape=partialRectangle;connectable=0;fillColor=none;top=0;left=0;bottom=0;right=0;editable=1;overflow=hidden;" vertex="1" parent="hYe1l8AVHvrtLXBg5llC-168">
          <mxGeometry width="30" height="30" as="geometry" />
        </mxCell>
        <mxCell id="hYe1l8AVHvrtLXBg5llC-170" value="submission_date" style="shape=partialRectangle;connectable=0;fillColor=none;top=0;left=0;bottom=0;right=0;align=left;spacingLeft=6;overflow=hidden;" vertex="1" parent="hYe1l8AVHvrtLXBg5llC-168">
          <mxGeometry x="30" width="150" height="30" as="geometry" />
        </mxCell>
        <mxCell id="hYe1l8AVHvrtLXBg5llC-89" value="students" style="shape=table;startSize=30;container=1;collapsible=1;childLayout=tableLayout;fixedRows=1;rowLines=0;fontStyle=1;align=center;resizeLast=1;" vertex="1" parent="1">
          <mxGeometry x="420" y="250" width="180" height="240" as="geometry" />
        </mxCell>
        <mxCell id="hYe1l8AVHvrtLXBg5llC-90" value="" style="shape=partialRectangle;collapsible=0;dropTarget=0;pointerEvents=0;fillColor=none;top=0;left=0;bottom=1;right=0;points=[[0,0.5],[1,0.5]];portConstraint=eastwest;" vertex="1" parent="hYe1l8AVHvrtLXBg5llC-89">
          <mxGeometry y="30" width="180" height="30" as="geometry" />
        </mxCell>
        <mxCell id="hYe1l8AVHvrtLXBg5llC-91" value="PK" style="shape=partialRectangle;connectable=0;fillColor=none;top=0;left=0;bottom=0;right=0;fontStyle=1;overflow=hidden;" vertex="1" parent="hYe1l8AVHvrtLXBg5llC-90">
          <mxGeometry width="30" height="30" as="geometry" />
        </mxCell>
        <mxCell id="hYe1l8AVHvrtLXBg5llC-92" value="ID" style="shape=partialRectangle;connectable=0;fillColor=none;top=0;left=0;bottom=0;right=0;align=left;spacingLeft=6;fontStyle=5;overflow=hidden;" vertex="1" parent="hYe1l8AVHvrtLXBg5llC-90">
          <mxGeometry x="30" width="150" height="30" as="geometry" />
        </mxCell>
        <mxCell id="hYe1l8AVHvrtLXBg5llC-93" value="" style="shape=partialRectangle;collapsible=0;dropTarget=0;pointerEvents=0;fillColor=none;top=0;left=0;bottom=0;right=0;points=[[0,0.5],[1,0.5]];portConstraint=eastwest;" vertex="1" parent="hYe1l8AVHvrtLXBg5llC-89">
          <mxGeometry y="60" width="180" height="30" as="geometry" />
        </mxCell>
        <mxCell id="hYe1l8AVHvrtLXBg5llC-94" value="FK" style="shape=partialRectangle;connectable=0;fillColor=none;top=0;left=0;bottom=0;right=0;editable=1;overflow=hidden;" vertex="1" parent="hYe1l8AVHvrtLXBg5llC-93">
          <mxGeometry width="30" height="30" as="geometry" />
        </mxCell>
        <mxCell id="hYe1l8AVHvrtLXBg5llC-95" value="cohort_id" style="shape=partialRectangle;connectable=0;fillColor=none;top=0;left=0;bottom=0;right=0;align=left;spacingLeft=6;overflow=hidden;" vertex="1" parent="hYe1l8AVHvrtLXBg5llC-93">
          <mxGeometry x="30" width="150" height="30" as="geometry" />
        </mxCell>
        <mxCell id="hYe1l8AVHvrtLXBg5llC-96" value="" style="shape=partialRectangle;collapsible=0;dropTarget=0;pointerEvents=0;fillColor=none;top=0;left=0;bottom=0;right=0;points=[[0,0.5],[1,0.5]];portConstraint=eastwest;" vertex="1" parent="hYe1l8AVHvrtLXBg5llC-89">
          <mxGeometry y="90" width="180" height="30" as="geometry" />
        </mxCell>
        <mxCell id="hYe1l8AVHvrtLXBg5llC-97" value="" style="shape=partialRectangle;connectable=0;fillColor=none;top=0;left=0;bottom=0;right=0;editable=1;overflow=hidden;" vertex="1" parent="hYe1l8AVHvrtLXBg5llC-96">
          <mxGeometry width="30" height="30" as="geometry" />
        </mxCell>
        <mxCell id="hYe1l8AVHvrtLXBg5llC-98" value="github" style="shape=partialRectangle;connectable=0;fillColor=none;top=0;left=0;bottom=0;right=0;align=left;spacingLeft=6;overflow=hidden;" vertex="1" parent="hYe1l8AVHvrtLXBg5llC-96">
          <mxGeometry x="30" width="150" height="30" as="geometry" />
        </mxCell>
        <mxCell id="hYe1l8AVHvrtLXBg5llC-99" value="" style="shape=partialRectangle;collapsible=0;dropTarget=0;pointerEvents=0;fillColor=none;top=0;left=0;bottom=0;right=0;points=[[0,0.5],[1,0.5]];portConstraint=eastwest;" vertex="1" parent="hYe1l8AVHvrtLXBg5llC-89">
          <mxGeometry y="120" width="180" height="30" as="geometry" />
        </mxCell>
        <mxCell id="hYe1l8AVHvrtLXBg5llC-100" value="" style="shape=partialRectangle;connectable=0;fillColor=none;top=0;left=0;bottom=0;right=0;editable=1;overflow=hidden;" vertex="1" parent="hYe1l8AVHvrtLXBg5llC-99">
          <mxGeometry width="30" height="30" as="geometry" />
        </mxCell>
        <mxCell id="hYe1l8AVHvrtLXBg5llC-101" value="start_date" style="shape=partialRectangle;connectable=0;fillColor=none;top=0;left=0;bottom=0;right=0;align=left;spacingLeft=6;overflow=hidden;" vertex="1" parent="hYe1l8AVHvrtLXBg5llC-99">
          <mxGeometry x="30" width="150" height="30" as="geometry" />
        </mxCell>
        <mxCell id="hYe1l8AVHvrtLXBg5llC-122" value="" style="shape=partialRectangle;collapsible=0;dropTarget=0;pointerEvents=0;fillColor=none;top=0;left=0;bottom=0;right=0;points=[[0,0.5],[1,0.5]];portConstraint=eastwest;" vertex="1" parent="hYe1l8AVHvrtLXBg5llC-89">
          <mxGeometry y="150" width="180" height="30" as="geometry" />
        </mxCell>
        <mxCell id="hYe1l8AVHvrtLXBg5llC-123" value="" style="shape=partialRectangle;connectable=0;fillColor=none;top=0;left=0;bottom=0;right=0;editable=1;overflow=hidden;" vertex="1" parent="hYe1l8AVHvrtLXBg5llC-122">
          <mxGeometry width="30" height="30" as="geometry" />
        </mxCell>
        <mxCell id="hYe1l8AVHvrtLXBg5llC-124" value="end_date" style="shape=partialRectangle;connectable=0;fillColor=none;top=0;left=0;bottom=0;right=0;align=left;spacingLeft=6;overflow=hidden;" vertex="1" parent="hYe1l8AVHvrtLXBg5llC-122">
          <mxGeometry x="30" width="150" height="30" as="geometry" />
        </mxCell>
        <mxCell id="hYe1l8AVHvrtLXBg5llC-126" value="" style="shape=partialRectangle;collapsible=0;dropTarget=0;pointerEvents=0;fillColor=none;top=0;left=0;bottom=0;right=0;points=[[0,0.5],[1,0.5]];portConstraint=eastwest;" vertex="1" parent="hYe1l8AVHvrtLXBg5llC-89">
          <mxGeometry y="180" width="180" height="30" as="geometry" />
        </mxCell>
        <mxCell id="hYe1l8AVHvrtLXBg5llC-127" value="" style="shape=partialRectangle;connectable=0;fillColor=none;top=0;left=0;bottom=0;right=0;editable=1;overflow=hidden;" vertex="1" parent="hYe1l8AVHvrtLXBg5llC-126">
          <mxGeometry width="30" height="30" as="geometry" />
        </mxCell>
        <mxCell id="hYe1l8AVHvrtLXBg5llC-128" value="email" style="shape=partialRectangle;connectable=0;fillColor=none;top=0;left=0;bottom=0;right=0;align=left;spacingLeft=6;overflow=hidden;" vertex="1" parent="hYe1l8AVHvrtLXBg5llC-126">
          <mxGeometry x="30" width="150" height="30" as="geometry" />
        </mxCell>
        <mxCell id="hYe1l8AVHvrtLXBg5llC-130" value="" style="shape=partialRectangle;collapsible=0;dropTarget=0;pointerEvents=0;fillColor=none;top=0;left=0;bottom=0;right=0;points=[[0,0.5],[1,0.5]];portConstraint=eastwest;" vertex="1" parent="hYe1l8AVHvrtLXBg5llC-89">
          <mxGeometry y="210" width="180" height="30" as="geometry" />
        </mxCell>
        <mxCell id="hYe1l8AVHvrtLXBg5llC-131" value="" style="shape=partialRectangle;connectable=0;fillColor=none;top=0;left=0;bottom=0;right=0;editable=1;overflow=hidden;" vertex="1" parent="hYe1l8AVHvrtLXBg5llC-130">
          <mxGeometry width="30" height="30" as="geometry" />
        </mxCell>
        <mxCell id="hYe1l8AVHvrtLXBg5llC-132" value="phone" style="shape=partialRectangle;connectable=0;fillColor=none;top=0;left=0;bottom=0;right=0;align=left;spacingLeft=6;overflow=hidden;" vertex="1" parent="hYe1l8AVHvrtLXBg5llC-130">
          <mxGeometry x="30" width="150" height="30" as="geometry" />
        </mxCell>
        <mxCell id="hYe1l8AVHvrtLXBg5llC-185" value="" style="edgeStyle=orthogonalEdgeStyle;fontSize=12;html=1;endArrow=ERone;endFill=1;exitX=1;exitY=0.5;exitDx=0;exitDy=0;entryX=0;entryY=0.5;entryDx=0;entryDy=0;" edge="1" parent="1" source="hYe1l8AVHvrtLXBg5llC-15" target="hYe1l8AVHvrtLXBg5llC-93">
          <mxGeometry width="100" height="100" relative="1" as="geometry">
            <mxPoint x="300" y="230" as="sourcePoint" />
            <mxPoint x="400" y="130" as="targetPoint" />
          </mxGeometry>
        </mxCell>
        <mxCell id="hYe1l8AVHvrtLXBg5llC-186" value="" style="edgeStyle=orthogonalEdgeStyle;fontSize=12;html=1;endArrow=ERone;endFill=1;entryX=0;entryY=0.5;entryDx=0;entryDy=0;exitX=0;exitY=0.5;exitDx=0;exitDy=0;" edge="1" parent="1" source="hYe1l8AVHvrtLXBg5llC-50" target="hYe1l8AVHvrtLXBg5llC-11">
          <mxGeometry width="100" height="100" relative="1" as="geometry">
            <mxPoint x="50" y="675" as="sourcePoint" />
            <mxPoint x="360" y="670" as="targetPoint" />
            <Array as="points">
              <mxPoint x="50" y="395" />
              <mxPoint x="50" y="675" />
            </Array>
          </mxGeometry>
        </mxCell>
        <mxCell id="hYe1l8AVHvrtLXBg5llC-187" value="" style="edgeStyle=orthogonalEdgeStyle;fontSize=12;html=1;endArrow=ERone;endFill=1;entryX=0;entryY=0.5;entryDx=0;entryDy=0;exitX=0;exitY=0.5;exitDx=0;exitDy=0;" edge="1" parent="1" source="hYe1l8AVHvrtLXBg5llC-90" target="hYe1l8AVHvrtLXBg5llC-8">
          <mxGeometry width="100" height="100" relative="1" as="geometry">
            <mxPoint x="670" y="600" as="sourcePoint" />
            <mxPoint x="770" y="500" as="targetPoint" />
            <Array as="points">
              <mxPoint x="370" y="295" />
              <mxPoint x="370" y="645" />
            </Array>
          </mxGeometry>
        </mxCell>
        <mxCell id="hYe1l8AVHvrtLXBg5llC-189" value="" style="edgeStyle=orthogonalEdgeStyle;fontSize=12;html=1;endArrow=ERone;endFill=1;entryX=0;entryY=0.5;entryDx=0;entryDy=0;exitX=0;exitY=0.5;exitDx=0;exitDy=0;" edge="1" parent="1" source="hYe1l8AVHvrtLXBg5llC-90" target="hYe1l8AVHvrtLXBg5llC-161">
          <mxGeometry width="100" height="100" relative="1" as="geometry">
            <mxPoint x="295" y="280" as="sourcePoint" />
            <mxPoint x="395" y="180" as="targetPoint" />
            <Array as="points">
              <mxPoint x="370" y="295" />
              <mxPoint x="370" y="115" />
            </Array>
          </mxGeometry>
        </mxCell>
        <mxCell id="hYe1l8AVHvrtLXBg5llC-190" value="" style="edgeStyle=orthogonalEdgeStyle;fontSize=12;html=1;endArrow=ERone;endFill=1;entryX=0;entryY=0.5;entryDx=0;entryDy=0;exitX=0;exitY=0.5;exitDx=0;exitDy=0;" edge="1" parent="1" source="hYe1l8AVHvrtLXBg5llC-134" target="hYe1l8AVHvrtLXBg5llC-158">
          <mxGeometry width="100" height="100" relative="1" as="geometry">
            <mxPoint x="670" y="600" as="sourcePoint" />
            <mxPoint x="770" y="500" as="targetPoint" />
            <Array as="points">
              <mxPoint x="390" y="225" />
              <mxPoint x="390" y="85" />
            </Array>
          </mxGeometry>
        </mxCell>
        <mxCell id="hYe1l8AVHvrtLXBg5llC-191" value="" style="edgeStyle=orthogonalEdgeStyle;fontSize=12;html=1;endArrow=ERone;endFill=1;entryX=0;entryY=0.5;entryDx=0;entryDy=0;exitX=1;exitY=0.5;exitDx=0;exitDy=0;" edge="1" parent="1" source="hYe1l8AVHvrtLXBg5llC-134" target="hYe1l8AVHvrtLXBg5llC-5">
          <mxGeometry width="100" height="100" relative="1" as="geometry">
            <mxPoint x="670" y="600" as="sourcePoint" />
            <mxPoint x="770" y="500" as="targetPoint" />
            <Array as="points">
              <mxPoint x="990" y="225" />
              <mxPoint x="990" y="520" />
              <mxPoint x="400" y="520" />
              <mxPoint x="400" y="615" />
            </Array>
          </mxGeometry>
        </mxCell>
      </root>
    </mxGraphModel>
  </diagram>
</mxfile>
